<?xml version="1.0" encoding="UTF-8" standalone="no"?>
<svg width="96px" height="19px" viewBox="0 0 96 19" version="1.1" xmlns="http://www.w3.org/2000/svg" xmlns:xlink="http://www.w3.org/1999/xlink">
    <!-- Generator: Sketch 43.2 (39069) - http://www.bohemiancoding.com/sketch -->
    <title>logo</title>
    <desc>Created with Sketch.</desc>
    <defs>
        <polygon id="path-1" points="1.97719042 0.29490947 0.191148728 0.29490947 0.191148728 0.10547725 1.97719042 0.10547725 1.97719042 0.29490947"></polygon>
        <polygon id="path-3" points="0 18.5104852 95.3792866 18.5104852 95.3792866 8.12822373e-05 0 8.12822373e-05"></polygon>
    </defs>
    <g id="Symbols" stroke="none" stroke-width="1" fill="none" fill-rule="evenodd">
        <g id="Header---user" transform="translate(-130.000000, -17.000000)">
            <g id="Top-nav-user">
                <g id="Group-13" transform="translate(130.000000, 14.000000)">
                    <g id="logo" transform="translate(0.000000, 3.500000)">
                        <path d="M28.0823356,14.9464487 C28.5952265,14.3847885 28.8637289,13.6524355 28.8637289,12.8707713 C28.8637289,12.1137628 28.5952265,11.4057945 28.0823356,10.8682479 C27.5447891,10.3065877 26.8855902,10.0134298 26.1285816,10.0134298 C25.4203424,10.0134298 24.7121031,10.3065877 24.2235969,10.8682479 C23.6619366,11.4057945 23.3934343,12.1384184 23.3934343,12.8954269 C23.3934343,13.6765492 23.6619366,14.3847885 24.2235969,14.9464487 C24.7121031,15.4837243 25.4203424,15.7768823 26.1285816,15.7768823 C26.8855902,15.7768823 27.5447891,15.4837243 28.0823356,14.9464487 Z M26.103926,7.32705181 C29.3522351,7.32705181 31.9408034,9.81835238 31.9408034,12.8954269 C31.9408034,15.9966152 29.3522351,18.4632602 26.103926,18.4632602 C22.8805434,18.4632602 20.2919751,15.9966152 20.2919751,12.8954269 C20.2919751,11.9804599 20.5249841,11.1199519 20.9311244,10.3588793 C21.7732084,8.78146198 23.3750103,7.64540724 25.2843301,7.38828443 C25.5528324,7.3522493 25.824857,7.32705181 26.103926,7.32705181 Z" id="Fill-1" fill="#231F1F"></path>
                        <path d="M46.3966326,7.35165323 C44.9067292,7.35165323 43.539291,8.15770209 42.6844728,9.42733063 C41.8055409,8.15770209 40.486872,7.35165323 38.972584,7.35165323 C38.0443408,7.35165323 37.0675993,7.81577481 36.3105907,8.47497375 L35.8467401,7.64481117 L33.4776338,7.64481117 L33.4776338,18.170319 L36.4084003,18.170319 L36.4084003,12.1137086 C36.7012873,11.0147727 37.4585668,10.0868005 38.6550414,10.0868005 C40.0227505,10.0868005 40.999492,11.429854 40.999492,12.9438712 L40.999492,18.170319 L43.7346393,18.170319 L43.7346393,12.7734494 C43.7834087,11.4547806 44.6869962,10.0868005 46.0547053,10.0868005 C47.4465281,10.0868005 48.399156,11.429854 48.399156,12.9438712 L48.399156,18.170319 L51.1343033,18.170319 L51.1343033,12.9438712 C51.1343033,9.84268287 49.0095856,7.35165323 46.3966326,7.35165323" id="Fill-3" fill="#231F1F"></path>
                        <g id="Group-7" transform="translate(57.710388, 18.239544)">
                            <mask id="mask-2" fill="white">
                                <use xlink:href="#path-1"></use>
                            </mask>
                            <g id="Clip-6"></g>
                            <path d="M0.773400488,0.239168566 C0.576697474,0.239168566 0.382703867,0.228001774 0.191148728,0.207219133 C0.389206446,0.229552717 0.589973572,0.241029698 0.793450106,0.241029698 C1.19959035,0.241029698 1.59543485,0.196672718 1.97719042,0.112611589 L1.97556478,0.10547725 C1.58595192,0.194501398 1.18685613,0.239168566 0.773400488,0.239168566" id="Fill-5" fill="#231F1F" mask="url(#mask-2)"></path>
                        </g>
                        <mask id="mask-4" fill="white">
                            <use xlink:href="#path-3"></use>
                        </mask>
                        <g id="Clip-9"></g>
                        <polygon id="Fill-8" fill="#231F1F" mask="url(#mask-4)" points="79.4818357 18.1701835 82.6320643 18.1701835 82.6320643 7.6446757 79.4818357 7.6446757"></polygon>
                        <path d="M91.5208459,14.9464487 C90.9838413,15.4837243 90.3241005,15.7768823 89.5670919,15.7768823 C88.8591236,15.7768823 88.1506134,15.4837243 87.6626491,14.9464487 C87.1009888,14.3847885 86.8319446,13.6765492 86.8319446,12.8954269 C86.8319446,12.1384184 87.1009888,11.4057945 87.6626491,10.8682479 C88.1506134,10.3065877 88.8591236,10.0134298 89.5670919,10.0134298 C90.3241005,10.0134298 90.9838413,10.3065877 91.5208459,10.8682479 C92.0340078,11.4057945 92.3025101,12.1137628 92.3025101,12.8707713 C92.3025101,13.6524355 92.0340078,14.3847885 91.5208459,14.9464487 M89.5429782,7.32705181 C86.3193246,7.32705181 83.7307563,9.81835238 83.7307563,12.8954269 C83.7307563,15.9966152 86.3193246,18.4632602 89.5429782,18.4632602 C92.7907454,18.4632602 95.3793137,15.9966152 95.3793137,12.8954269 C95.3793137,9.81835238 92.7907454,7.32705181 89.5429782,7.32705181" id="Fill-10" fill="#231F1F" mask="url(#mask-4)"></path>
                        <path d="M5.54369243,7.91336768 L3.41897475,7.91336768 L3.41897475,4.46998117 L5.54369243,4.46998117 C6.4713937,4.46998117 7.25305788,5.25164535 7.25305788,6.20373129 C7.25305788,7.15635911 6.4713937,7.91336768 5.54369243,7.91336768 M5.54369243,1.05097933 L-2.70940791e-05,1.05097933 L-2.70940791e-05,18.1701023 L3.41897475,14.7511004 L3.41897475,11.3323695 L5.54369243,11.3323695 C8.3763784,11.3323695 10.6720597,9.0366882 10.6720597,6.20373129 C10.6720597,3.37104532 8.3763784,1.05097933 5.54369243,1.05097933" id="Fill-11" fill="#231F1F" mask="url(#mask-4)"></path>
                        <path d="M20.9113999,7.32808138 C19.6913535,7.34487971 18.728159,7.3760379 18.5097807,7.3760379 C17.1179579,7.3760379 15.7258641,7.81577481 14.9444709,8.8412857 L14.504734,7.64454023 L12.1358986,7.64454023 L12.1358986,18.170319 L15.1885885,18.170319 L15.1885885,12.3578262 C15.4530267,10.9554367 16.7516459,9.98086267 18.8238011,10.3222481 C19.2619124,9.16370524 19.9839696,8.14036188 20.9113999,7.32808138" id="Fill-12" fill="#231F1F" mask="url(#mask-4)"></path>
                        <path d="M73.2085268,14.9485621 C72.6929265,15.4839411 71.9871258,15.7757443 71.2523343,15.7757443 C70.5224198,15.7757443 69.8363978,15.4839411 69.3254034,14.9485621 C68.8098031,14.4083061 68.5177289,13.6786626 68.5177289,12.9194865 C68.5177289,12.1600395 68.8098031,11.4545096 69.3254034,10.8950169 C69.8363978,10.354761 70.5224198,10.0629577 71.2523343,10.0629577 C71.9871258,10.0629577 72.6929265,10.354761 73.2085268,10.8950169 C73.7195212,11.4545096 74.0115953,12.1600395 74.0115953,12.9194865 C74.0115953,13.6786626 73.7195212,14.4083061 73.2085268,14.9485621 L73.2085268,14.9485621 Z M61.1595189,13.644795 L57.6280767,15.6055935 L56.2156623,16.3896961 L56.2156623,14.4199566 L56.2156623,11.3837941 L56.2156623,9.37910317 L57.6554417,10.1786494 L61.1603317,12.1248171 L62.5288537,12.8845351 L61.1595189,13.644795 Z M74.7707714,8.91443972 C73.7680196,7.93634346 72.3764677,7.32835233 70.8632634,7.32835233 C68.0893715,7.32835233 65.7972124,9.37178777 65.3742739,12.0289041 L64.2636876,12.0289041 L64.2452636,12.0289041 C63.9437065,10.194364 62.7171575,8.66138102 61.0237776,7.88296812 L61.0256742,7.87429802 C60.5856663,7.67407277 60.1174806,7.52153311 59.6232846,7.43103888 L59.6224718,7.43537394 C59.2575146,7.36709686 58.8730496,7.32835233 58.4837077,7.32835233 C58.294591,7.32835233 58.1103513,7.3454216 57.9261115,7.36221992 C57.8453712,7.37061909 57.7643599,7.37766355 57.6844323,7.38850118 C55.7751126,7.64535305 54.1733106,8.78140779 53.3314976,10.3588251 C52.9250864,11.1198978 52.6918064,11.9804057 52.6918064,12.8953728 C52.6918064,15.8009418 54.9639159,18.1491856 57.9014559,18.4339444 C58.0930111,18.4520974 58.2872756,18.4618513 58.4837077,18.4618513 C58.8974343,18.4618513 59.2962591,18.4228358 59.685872,18.3450758 L59.6877686,18.3513075 C60.1768167,18.2570201 60.6393126,18.0996035 61.0744435,17.8982945 L61.0725469,17.8923338 C62.8244501,17.0700285 64.0748418,15.4397777 64.2842791,13.4884621 L64.30758,13.4884621 L65.3255045,13.4884621 C65.6075539,16.3206062 67.977473,18.5103497 70.8632634,18.5103497 C72.3764677,18.5103497 73.7680196,17.9020876 74.7707714,16.9239914 L74.7707714,18.1700481 L77.650872,18.1700481 L77.650872,-5.41881582e-05 L74.7707714,-5.41881582e-05 L74.7707714,8.91443972 Z" id="Fill-13" fill="#F23148" mask="url(#mask-4)"></path>
                        <polygon id="Fill-14" fill="#F23148" mask="url(#mask-4)" points="79.4819712 1.05095223 79.4819712 4.46995407 82.6321998 1.05095223"></polygon>
                    </g>
                </g>
            </g>
        </g>
    </g>
</svg>